<?xml version="1.0" encoding="UTF-8"?><svg id="Layer_2" xmlns="http://www.w3.org/2000/svg" viewBox="0 0 96.37 96.16"><defs><style>.cls-1{fill:#f5b33e;}.cls-2{fill:#0c1d32;}</style></defs><g id="Icons"><g><rect class="cls-1" x="47.4" y="1.91" width="31.01" height="94.25"/><path class="cls-2" d="M.34,5.55c3.18,2.96,6.36,5.92,9.55,8.88,7.61,7.08,15.22,14.15,22.83,21.23,9.23,8.58,18.46,17.17,27.69,25.75,7.95,7.4,15.9,14.79,23.86,22.19l7.86,7.31,2.46,2.29c.33,.31,.85,1.03,1.27,1.19,.06,.02,.12,.11,.17,.15-.22-.21,.02-2.15,.02-2.5,0-.59,0-1.18,0-1.77,0-.13,.06-.66-.02-.73-3.18-2.96-6.36-5.92-9.55-8.88-7.61-7.08-15.22-14.15-22.83-21.23-9.23-8.58-18.46-17.17-27.69-25.75-7.95-7.4-15.9-14.79-23.86-22.19L4.24,4.19,1.78,1.89c-.33-.31-.85-1.03-1.27-1.19-.06-.02-.12-.11-.17-.15,.22,.21-.02,2.15-.02,2.5,0,.59,0,1.18,0,1.77,0,.13-.06,.66,.02,.73H.34Z"/><path class="cls-2" d="M1.44,93.94c3.09-2.97,6.18-5.93,9.26-8.9,7.35-7.06,14.7-14.12,22.06-21.18,8.92-8.57,17.84-17.13,26.75-25.7,7.71-7.41,15.42-14.81,23.13-22.22,2.53-2.43,5.07-4.87,7.6-7.3l2.4-2.3c.38-.37,.94-.75,1.24-1.19,.04-.06,.11-.1,.16-.15,.27-.26,.02-2.11,.02-2.5,0-.59,0-1.18,0-1.77,0-.11-.08-.68-.02-.73-3.09,2.97-6.18,5.93-9.26,8.9-7.35,7.06-14.7,14.12-22.06,21.18-8.92,8.57-17.84,17.13-26.75,25.7-7.71,7.41-15.42,14.81-23.13,22.22l-7.6,7.3-2.4,2.3c-.38,.37-.94,.75-1.24,1.19-.04,.06-.11,.1-.16,.15-.27,.26-.02,2.11-.02,2.5,0,.59,0,1.18,0,1.77,0,.11,.08,.68,.02,.73h0Z"/></g></g></svg>