<?xml version="1.0" standalone="no"?>
<!DOCTYPE svg PUBLIC "-//W3C//DTD SVG 20010904//EN"
 "http://www.w3.org/TR/2001/REC-SVG-20010904/DTD/svg10.dtd">
<svg version="1.0" xmlns="http://www.w3.org/2000/svg"
 width="198.000000pt" height="198.000000pt" viewBox="0 0 198.000000 198.000000"
 preserveAspectRatio="xMidYMid meet">
<metadata>
Created by potrace 1.14, written by Peter Selinger 2001-2017
</metadata>
<g transform="translate(0.000000,198.000000) scale(0.100000,-0.100000)"
fill="#000000" stroke="none">
<path d="M990 1930 c-2 -48 0 -183 3 -186 1 -1 36 -5 77 -8 129 -12 278 -73
380 -155 165 -133 258 -302 285 -520 5 -42 7 -43 46 -46 l31 -3 -7 66 c-29
284 -217 544 -479 662 -69 31 -202 67 -258 69 -11 1 -24 21 -37 59 -36 97 -39
102 -41 62z"/>
<path d="M781 1785 c-321 -86 -556 -350 -606 -680 -3 -22 -9 -43 -13 -47 -4
-3 -34 -15 -67 -26 -33 -11 -61 -24 -62 -29 -3 -9 192 -12 200 -3 3 3 8 36 12
73 24 252 186 481 423 595 34 17 62 29 62 27 0 -2 16 3 35 11 19 7 51 17 72
20 21 4 45 8 53 9 8 2 30 4 48 4 30 1 32 3 32 37 l0 35 -56 -3 c-31 -2 -91
-12 -133 -23z"/>
<path d="M965 1652 c-22 -1 -54 -4 -71 -7 l-31 -5 0 -649 -1 -649 22 -6 c11
-3 73 -4 136 -2 123 4 201 26 299 83 303 174 416 555 260 872 -59 120 -171
232 -289 290 -47 23 -92 43 -100 45 -8 2 -26 6 -40 10 -42 11 -143 21 -185 18z
m236 -310 c219 -139 264 -423 98 -619 -29 -35 -114 -98 -144 -107 -20 -6 -20
-1 -19 362 1 202 2 373 3 380 2 18 12 15 62 -16z"/>
<path d="M785 1621 c-91 -29 -173 -78 -261 -157 -66 -60 -137 -178 -170 -283
-21 -65 -30 -255 -15 -322 32 -140 102 -262 208 -359 68 -62 196 -134 261
-146 36 -7 33 -19 33 121 1 136 4 128 -47 154 -66 35 -138 112 -173 184 -78
159 -45 347 83 472 29 27 71 59 94 69 23 11 42 24 43 30 3 39 1 247 -2 250 -2
1 -27 -4 -54 -13z"/>
<path d="M1750 992 c-5 -2 -10 -16 -10 -30 -1 -15 -7 -61 -14 -102 -32 -177
-126 -337 -268 -453 -102 -83 -264 -151 -383 -160 l-59 -4 -1 -34 c0 -33 1
-34 40 -33 327 7 659 290 730 622 9 43 20 90 23 106 6 26 16 32 87 57 76 27
78 28 40 29 -128 4 -176 5 -185 2z"/>
<path d="M173 910 c27 -313 250 -594 552 -695 40 -14 90 -27 111 -31 68 -10
86 -13 89 -16 1 -2 15 -36 30 -75 16 -40 30 -73 32 -73 1 0 3 49 3 109 l0 108
-68 7 c-236 23 -443 152 -569 354 -64 103 -110 244 -112 347 -1 17 -8 21 -37
21 l-36 0 5 -56z"/>
</g>
</svg>
