<svg version="1.1" id="Layer_1" xmlns="http://www.w3.org/2000/svg" xmlns:xlink="http://www.w3.org/1999/xlink" x="0px" y="0px"
	 viewBox="0 0 50 100" style="enable-background:new 0 0 50 100;" xml:space="preserve">
<style type="text/css">
	.st0{fill:#FFF5E3;}
</style>
<g>
	<g>
		<path class="st0" d="M0.9,8.1c5.3,5,10.6,9.9,16,14.9c8.4,7.8,16.8,15.7,25.2,23.5c1.9,1.8,3.9,3.6,5.8,5.4c-0.2-0.2,0-2.2,0-2.5
			c0-0.6,0-1.2,0-1.8c0-0.1,0.1-0.7,0-0.7c-5.3-5-10.6-9.9-16-14.9C23.6,24.2,15.2,16.3,6.8,8.5C4.8,6.7,2.9,4.9,0.9,3.1
			c0.2,0.2,0,2.2,0,2.5c0,0.6,0,1.2,0,1.8C0.9,7.5,0.9,8,0.9,8.1L0.9,8.1z"/>
	</g>
</g>
<g>
	<g>
		<path class="st0" d="M2.1,97c5.2-5,10.3-10,15.5-15c8.3-8,16.5-16.1,24.8-24.1c1.9-1.8,3.8-3.7,5.7-5.5c0.3-0.3,0-2.1,0-2.5
			c0-0.6,0-1.2,0-1.8c0-0.1-0.1-0.7,0-0.7c-5.2,5-10.3,10-15.5,15c-8.3,8-16.5,16.1-24.8,24.1C5.9,88.3,4,90.1,2.1,92
			c-0.3,0.3,0,2.1,0,2.5c0,0.6,0,1.2,0,1.8C2.1,96.3,2.2,96.9,2.1,97L2.1,97z"/>
	</g>
</g>
</svg>
