<?xml version="1.0" encoding="UTF-8"?>
<svg id="Layer_2" data-name="Layer 2" xmlns="http://www.w3.org/2000/svg" viewBox="0 0 121.47 121.47">
  <defs>
    <style>
      .cls-1 {
        fill: #033a56;
      }

      .cls-2 {
        fill: #111;
      }

      .cls-3 {
        fill: #0c1d32;
      }
    </style>
  </defs>
  <g id="name_treatments" data-name="name treatments">
    <g>
      <path class="cls-3" d="m51.59,84.58c-9.58-3.69-16.41-12.98-16.41-23.84s6.82-20.16,16.4-23.85c0,0,0,0,.01,0v-15.99c-18.18,4.15-31.74,20.41-31.74,39.84s13.57,35.69,31.74,39.84v-16Z"/>
      <path class="cls-1" d="m60.73,19.85c-2.62,0-5.18.26-7.67.73v80.31c2.48.47,5.04.73,7.67.73,22.58,0,40.88-18.3,40.88-40.88s-18.3-40.88-40.88-40.88Zm8.94,64.79v-47.81c9.68,3.64,16.61,12.97,16.61,23.9s-6.92,20.27-16.61,23.9Z"/>
    </g>
    <g>
      <path class="cls-2" d="m60.73,0v14.25c25.09,0,45.53,19.88,46.44,44.75h4.21c-.88-25.89-21.24-46.91-46.86-48.82"/>
      <path class="cls-1" d="m0,60.35l14.25.09c.16-25.09,20.17-45.4,45.04-46.16l.03-4.21c-25.89.71-47.05,20.94-49.11,46.55"/>
    </g>
    <g>
      <path class="cls-2" d="m60.61,121.47l.03-14.25c-25.09-.05-45.49-19.98-46.35-44.85h-4.21c.82,25.88,21.14,46.95,46.75,48.91"/>
      <path class="cls-1" d="m121.47,60.74h-14.25c0,25.09-19.89,45.52-44.76,46.43v4.21c25.89-.87,46.92-21.24,48.82-46.85"/>
    </g>
  </g>
</svg>