<?xml version="1.0" encoding="UTF-8"?><svg id="Layer_2" xmlns="http://www.w3.org/2000/svg" viewBox="0 0 302.85 302.85"><defs><style>.cls-1{fill:#ececec;}</style></defs><g id="Typography"><g><g><path class="cls-1" d="M126.41,216.67c-26.23-10.09-44.91-35.51-44.91-65.24s18.66-55.18,44.88-65.27c.01,0,.02,0,.03-.01V42.39c-49.74,11.37-86.86,55.85-86.86,109.03s37.12,97.66,86.86,109.03v-43.79Z"/><path class="cls-1" d="M151.42,39.55c-7.17,0-14.18,.7-20.98,1.99v219.76c6.8,1.29,13.8,1.99,20.98,1.99,61.79,0,111.87-50.09,111.87-111.87s-50.09-111.87-111.87-111.87Zm24.47,177.29V86.01c26.5,9.95,45.45,35.48,45.45,65.41s-18.95,55.46-45.45,65.41Z"/></g><path class="cls-1" d="M151.42,0V35.53c62.56,0,113.51,49.57,115.79,111.58h10.49c-2.18-64.54-52.96-116.97-116.83-121.71"/><path class="cls-1" d="M0,150.46l35.53,.23c.4-62.56,50.29-113.19,112.31-115.08l.07-10.49c-64.55,1.77-117.3,52.22-122.45,116.05"/><path class="cls-1" d="M151.1,302.85l.07-35.53c-62.56-.13-113.41-49.81-115.55-111.82l-10.49-.02c2.05,64.54,52.71,117.08,116.57,121.96"/><path class="cls-1" d="M302.85,151.44h-35.53c0,62.55-49.59,113.5-111.59,115.77v10.49c64.54-2.18,116.98-52.94,121.73-116.81"/></g></g></svg>