<?xml version="1.0" encoding="UTF-8"?>
<svg id="Layer_2" data-name="Layer 2" xmlns="http://www.w3.org/2000/svg" viewBox="0 0 94.25 90.83">
  <defs>
    <style>
      .cls-1 {
        fill: #acbdd2;
      }

      .cls-2 {
        fill: #F5B33E;
      }
    </style>
  </defs>
  <g id="Icons">
    <g>
      <polygon class="cls-1" points=".2 51.09 0 19.96 94.05 19.84 94.25 50.97 .2 51.09"/>
      <g>
        <path class="cls-2" d="m3.33,66.36c9.11,2.11,8.41,15.03,16.64,18.02,2.88,1.04,6.57.36,9.56.43,2.1.05,1.56-.39,2.04,1.23.38,1.3,0,3.41,0,4.78,0-.5,1.89-2.05,1.89-3.08v-6.18c-4.93,0-11.02,1.24-14.8-2.62-4.8-4.9-5.9-14.08-13.45-15.83-.59-.14-1.8,3.26-1.88,3.25h0Z"/>
        <path class="cls-2" d="m33.29,67.13l2.28-3.56c.19-.26,1.52-2.84,1.49-2.84-10.79-.64-20.67-9.03-23.24-19.43-1.1-4.46-.98-9.15-.19-13.65.5-2.85,1.28-5.66,2.24-8.39,1.3-3.7,1.02-2.65.02-6.36-.56-2.1-.93-7.27,1.05-8.88,1.53-1.24,3.8-.62,5.83-.21,3.68.73,5.93,2.85,8.81,5.04l.08-.03c7.11-4.22,19.55-4.48,26.54.31l.08-.03c3.47-3.03,8.86-6.47,13.81-5.77,1.67.24,1.2.1,2.07,1.66.6,1.08.95,2.57,1.28,3.77.57,2.08.97,4.28.78,6.44-.1,1.11-.59,2.17-.27,3.1.34.99,1.64,2.12,2.17,3.07,1.33,2.34,2.16,4.95,2.65,7.59,2.74,14.86-5.2,30.45-21.24,31.76-.43.04-2.11,2.93-1.88,3.25,4.95,6.68,3.12,18.06,1.65,25.74.12-.62,1.69-2.01,1.89-3.08,1.47-7.67,3.31-19.18-1.67-25.9l-1.88,3.25c13.48-1.1,22.33-12.95,24.82-25.52,1.28-6.43.94-13.65-2.08-19.57-.85-1.67-2.32-3.03-2.6-4.9-.23-1.57.41-3.45.2-5.14-.23-1.89-.76-3.73-1.38-5.52-.75-2.17-.61-2.78-2.66-3.24-1.36-.31-3.44.3-4.77.64-2.39.59-4.22,1.67-6.33,2.87-3.04,1.72-2.99,1.79-5.9.7-4.47-1.69-9.74-2.01-14.45-1.5-3.5.37-7.95,3.2-10.88,1.38C28.02,1.92,25.64.21,21.11.14c-3.88-.06-6.22,6-7.09,9.38-.59,2.29-.41,4.34-.01,6.62.62,3.56.13,5.33-.9,8.82-1.37,4.63-2.22,9.47-1.94,14.31.73,12.71,11.02,23.94,24.01,24.71l1.49-2.84c-1.93,2.56-3.61,5.24-4.93,8.16-.59,1.31,1.34-1.69,1.56-2.16h0Z"/>
      </g>
    </g>
  </g>
</svg>