<?xml version="1.0" encoding="utf-8"?>
<!-- Generator: Adobe Illustrator 27.1.1, SVG Export Plug-In . SVG Version: 6.00 Build 0)  -->
<svg version="1.1" id="Layer_1" xmlns="http://www.w3.org/2000/svg" xmlns:xlink="http://www.w3.org/1999/xlink" x="0px" y="0px"
	 viewBox="0 0 36 36" style="enable-background:new 0 0 36 36;" xml:space="preserve">
<style type="text/css">
	.st0{fill:#ACBDD1;}
	.st1{fill:#0D1D31;}
</style>
<g>
	<polygon class="st0" points="1477.8,1257.1 1477.6,1226 1571.7,1225.9 1571.9,1257 	"/>
	<g>
		<g>
			<g>
				<path class="st1" d="M1481,1272.4c9.1,2.1,8.4,15,16.6,18c2.9,1,6.6,0.4,9.6,0.4c2.1,0,1.6-0.4,2,1.2c0.4,1.3,0,3.4,0,4.8
					c0-0.5,1.9-2.1,1.9-3.1c0-2,0-4.1,0-6.1c0,0,0-0.1,0-0.1c-4.9,0-11,1.2-14.8-2.6c-4.8-4.9-5.9-14.1-13.5-15.8
					C1482.2,1269,1481,1272.4,1481,1272.4L1481,1272.4z"/>
			</g>
		</g>
		<g>
			<g>
				<path class="st1" d="M1510.9,1273.2c0.8-1.2,1.5-2.4,2.3-3.6c0.2-0.3,1.5-2.8,1.5-2.8c-10.8-0.6-20.7-9-23.2-19.4
					c-1.1-4.5-1-9.2-0.2-13.7c0.5-2.9,1.3-5.7,2.2-8.4c1.3-3.7,1-2.6,0-6.4c-0.6-2.1-0.9-7.3,1-8.9c1.5-1.2,3.8-0.6,5.8-0.2
					c3.7,0.7,5.9,2.8,8.8,5c0,0,0.1,0,0.1,0c7.1-4.2,19.5-4.5,26.5,0.3c0,0,0.1,0,0.1,0c3.5-3,8.9-6.5,13.8-5.8
					c1.7,0.2,1.2,0.1,2.1,1.7c0.6,1.1,0.9,2.6,1.3,3.8c0.6,2.1,1,4.3,0.8,6.4c-0.1,1.1-0.6,2.2-0.3,3.1c0.3,1,1.6,2.1,2.2,3.1
					c1.3,2.3,2.2,5,2.6,7.6c2.7,14.9-5.2,30.4-21.2,31.8c-0.4,0-2.1,2.9-1.9,3.2c4.9,6.7,3.1,18.1,1.7,25.7c0.1-0.6,1.7-2,1.9-3.1
					c1.5-7.7,3.3-19.2-1.7-25.9c-0.6,1.1-1.2,2.2-1.9,3.2c13.5-1.1,22.3-12.9,24.8-25.5c1.3-6.4,0.9-13.6-2.1-19.6
					c-0.9-1.7-2.3-3-2.6-4.9c-0.2-1.6,0.4-3.5,0.2-5.1c-0.2-1.9-0.8-3.7-1.4-5.5c-0.7-2.2-0.6-2.8-2.7-3.2c-1.4-0.3-3.4,0.3-4.8,0.6
					c-2.4,0.6-4.2,1.7-6.3,2.9c-3,1.7-3,1.8-5.9,0.7c-4.5-1.7-9.7-2-14.5-1.5c-3.5,0.4-7.9,3.2-10.9,1.4c-3.6-2.2-6-3.9-10.5-4
					c-3.9-0.1-6.2,6-7.1,9.4c-0.6,2.3-0.4,4.3,0,6.6c0.6,3.6,0.1,5.3-0.9,8.8c-1.4,4.6-2.2,9.5-1.9,14.3c0.7,12.7,11,23.9,24,24.7
					c0.5-0.9,1-1.9,1.5-2.8c-1.9,2.6-3.6,5.2-4.9,8.2C1508.8,1276.6,1510.7,1273.6,1510.9,1273.2L1510.9,1273.2z"/>
			</g>
		</g>
	</g>
</g>
<g>
	<g>
		<g>
			<path class="st1" d="M0.8,27.4C4.2,28.2,4,33,7,34.2c1.2,0.5,2.5,0,3.7,0.2c0.8,0.1,0.6-0.2,0.8,0.5c0.1,0.5,0,1.2,0,1.7
				c0,0.2,0.8-0.9,0.9-1c0.3-0.5,1-1.4,1-2.1c0-0.8,0-1.5,0-2.3c0,0,0-0.1,0-0.1c-1.9,0-4.2,0.5-5.7-1.1c-1.8-1.9-2.2-5.3-5.1-6
				C2.1,24,0.8,27.4,0.8,27.4L0.8,27.4z"/>
		</g>
	</g>
	<g>
		<g>
			<path class="st1" d="M13.1,26.3c0.1-0.1,0.1-0.2,0.2-0.3c0.2-0.2,1.5-2.8,1.5-2.8c-3.7-0.3-7.2-2.8-8.5-6.3
				c-0.6-1.6-0.7-3.4-0.6-5.1c0.2-1.8,1.5-3.8,1.5-5.6c0-2.4-1.3-3.4,1.6-2.5c1.1,0.3,1.9,1.1,2.7,1.8c0,0,0.1,0,0.1,0
				c3-1.5,7.1-1.6,10.1,0.1c0,0,0.1,0,0.1,0c2.7-2.2,6-3.6,6.7,0.6c0,0.1-0.2,2.4-0.1,2.8c0.2,0.6,1.1,1.6,1.4,2.2
				c2.4,5.5-0.3,11.4-6.4,12.1c-0.5,0.1-2.1,2.9-1.9,3.2c1.7,2.8,1.2,6.7,0.6,9.8c0.1-0.6,1.7-2,1.9-3.1c0.6-3.1,1.1-7.1-0.6-9.9
				c-0.6,1.1-1.2,2.2-1.9,3.2c6.4-0.8,10.7-7.8,10.9-13.9c0.1-2.1-0.4-3.6-1.2-5.5c-0.6-1.7-0.4-3.9-1.3-5.5
				c-1.8-3.5-4.3,0.3-7.1,0.3c-0.9,0-2.3-0.7-3.3-0.8C17.9,1,16.5,1.4,15,1.5c-3,0.3-5.6-2.8-8-0.2c-2.2,2.3-2.1,5.2-2.3,8
				C4.5,13.8,2.6,17.9,5.4,22c1.7,2.5,4.6,4.2,7.5,4.4c0.5-0.9,1-1.9,1.5-2.8c-1,1.4-1.8,2.7-2.5,4.2C10.8,29.8,12.8,26.9,13.1,26.3
				L13.1,26.3z"/>
		</g>
	</g>
</g>
</svg>
