<?xml version="1.0" encoding="UTF-8"?><svg id="Layer_2" xmlns="http://www.w3.org/2000/svg" viewBox="0 0 108.45 36.4"><defs><style>.cls-1,.cls-2{fill:#acbdd2;}.cls-2{opacity:.5;}</style></defs><g id="Icons"><g><rect class="cls-2" x="31.85" y="-28.09" width="31.01" height="94.25" transform="translate(28.45 66.44) rotate(-90.16)"/><path class="cls-1" d="M.27,36.4c3.35-.03,6.7-.06,10.05-.1,8.05-.08,16.1-.15,24.14-.23,9.74-.09,19.47-.19,29.21-.28,8.42-.08,16.83-.16,25.25-.24l8.29-.08,2.59-.02c.33,0,1.06,.13,1.37-.01,.04-.02,.13,0,.18,0,.05,0,.02-5,0-5-3.35,.03-6.7,.06-10.05,.1-8.05,.08-16.1,.15-24.14,.23l-29.21,.28c-8.42,.08-16.83,.16-25.25,.24-2.76,.03-5.53,.05-8.29,.08l-2.59,.02c-.33,0-1.06-.13-1.37,.01-.04,.02-.13,0-.18,0-.05,0-.02,5,0,5H.27Z"/><path class="cls-1" d="M.03,6.32c3.59-.04,7.18-.09,10.77-.13,8.62-.11,17.24-.21,25.86-.32,10.43-.13,20.86-.25,31.3-.38l27.08-.33,8.99-.11,2.75-.03c.36,0,1.12,.14,1.45-.02,.04-.02,.14,0,.19,0C108.48,5,108.44,0,108.42,0c-3.59,.04-7.18,.09-10.77,.13-8.62,.11-17.24,.21-25.86,.32-10.43,.13-20.86,.25-31.3,.38l-27.08,.33-8.99,.11-2.75,.03c-.36,0-1.12-.14-1.45,.02-.04,.02-.14,0-.19,0-.06,0-.02,5,0,5H.03Z"/></g></g></svg>